<?xml version="1.0" encoding="UTF-8" standalone="no"?>
<!DOCTYPE svg PUBLIC "-//W3C//DTD SVG 1.1//EN"
 "http://www.w3.org/Graphics/SVG/1.1/DTD/svg11.dtd">
<!-- Generated by graphviz version 2.40.1 (20161225.0304)
 -->
<!-- Title: G Pages: 1 -->
<svg width="1269pt" height="1029pt"
 viewBox="0.00 0.00 1268.72 1028.96" xmlns="http://www.w3.org/2000/svg" xmlns:xlink="http://www.w3.org/1999/xlink">
<g id="graph0" class="graph" transform="scale(1 1) rotate(0) translate(4 1024.9589)">
<title>G</title>
<polygon fill="#ffffff" stroke="transparent" points="-4,4 -4,-1024.9589 1264.7171,-1024.9589 1264.7171,4 -4,4"/>
<g id="clust1" class="cluster">
<title>cluster_arguments</title>
<polygon fill="#3399ff" stroke="#000000" points="8,-165.8234 8,-254.7351 270,-254.7351 270,-165.8234 8,-165.8234"/>
<text text-anchor="middle" x="139" y="-239.5351" font-family="Times,serif" font-size="14.00" fill="#000000">Arguments</text>
</g>
<!-- configPath -->
<g id="node1" class="node">
<title>configPath</title>
<ellipse fill="none" stroke="#000000" cx="139" cy="-199.2792" rx="122.8302" ry="25.4118"/>
<text text-anchor="middle" x="139" y="-202.0792" font-family="Times,serif" font-size="14.00" fill="#000000">configPath</text>
<text text-anchor="middle" x="139" y="-188.0792" font-family="Times,serif" font-size="14.00" fill="#000000">(Innmind\Url\PathInterface)</text>
</g>
<!-- commands -->
<g id="node2" class="node">
<title>commands</title>
<polygon fill="#00ff00" stroke="#000000" points="777.71,-999.2062 632,-1020.9241 486.29,-999.2062 486.426,-964.066 777.574,-964.066 777.71,-999.2062"/>
<text text-anchor="middle" x="632" y="-992.2937" font-family="Times,serif" font-size="14.00" fill="#000000">commands</text>
<text text-anchor="middle" x="632" y="-978.2937" font-family="Times,serif" font-size="14.00" fill="#000000">(Innmind\CLI\Commands)</text>
</g>
<!-- command_trigger -->
<g id="node3" class="node">
<title>command_trigger</title>
<ellipse fill="none" stroke="#000000" cx="632" cy="-896.5727" rx="155.3729" ry="25.4118"/>
<text text-anchor="middle" x="632" y="-899.3727" font-family="Times,serif" font-size="14.00" fill="#000000">command.trigger</text>
<text text-anchor="middle" x="632" y="-885.3727" font-family="Times,serif" font-size="14.00" fill="#000000">(Innmind\Tower\Command\Trigger)</text>
</g>
<!-- commands&#45;&gt;command_trigger -->
<g id="edge1" class="edge">
<title>commands&#45;&gt;command_trigger</title>
<path fill="none" stroke="#000000" d="M632,-963.61C632,-953.944 632,-942.7888 632,-932.3863"/>
<polygon fill="#000000" stroke="#000000" points="635.5001,-932.3176 632,-922.3176 628.5001,-932.3176 635.5001,-932.3176"/>
</g>
<!-- command_ping -->
<g id="node4" class="node">
<title>command_ping</title>
<ellipse fill="none" stroke="#000000" cx="449" cy="-375.1026" rx="144.0028" ry="25.4118"/>
<text text-anchor="middle" x="449" y="-377.9026" font-family="Times,serif" font-size="14.00" fill="#000000">command.ping</text>
<text text-anchor="middle" x="449" y="-363.9026" font-family="Times,serif" font-size="14.00" fill="#000000">(Innmind\Tower\Command\Ping)</text>
</g>
<!-- commands&#45;&gt;command_ping -->
<g id="edge2" class="edge">
<title>commands&#45;&gt;command_ping</title>
<path fill="none" stroke="#000000" d="M525.7107,-964.0248C503.7973,-954.2091 482.8917,-940.671 468,-922.0286 436.3879,-882.4546 449,-860.3111 449,-809.661 449,-809.661 449,-809.661 449,-548.926 449,-501.2028 449,-446.1096 449,-410.9629"/>
<polygon fill="#000000" stroke="#000000" points="452.5001,-410.7259 449,-400.7259 445.5001,-410.726 452.5001,-410.7259"/>
</g>
<!-- command_listen -->
<g id="node5" class="node">
<title>command_listen</title>
<ellipse fill="none" stroke="#000000" cx="985" cy="-896.5727" rx="150.6793" ry="25.4118"/>
<text text-anchor="middle" x="985" y="-899.3727" font-family="Times,serif" font-size="14.00" fill="#000000">command.listen</text>
<text text-anchor="middle" x="985" y="-885.3727" font-family="Times,serif" font-size="14.00" fill="#000000">(Innmind\Tower\Command\Listen)</text>
</g>
<!-- commands&#45;&gt;command_listen -->
<g id="edge3" class="edge">
<title>commands&#45;&gt;command_listen</title>
<path fill="none" stroke="#000000" d="M728.9257,-963.9797C780.3029,-950.4556 843.0573,-933.9366 893.5838,-920.6364"/>
<polygon fill="#000000" stroke="#000000" points="894.7394,-923.9515 903.519,-918.0212 892.9575,-917.1821 894.7394,-923.9515"/>
</g>
<!-- run -->
<g id="node6" class="node">
<title>run</title>
<ellipse fill="none" stroke="#000000" cx="735" cy="-375.1026" rx="98.7028" ry="25.4118"/>
<text text-anchor="middle" x="735" y="-377.9026" font-family="Times,serif" font-size="14.00" fill="#000000">run</text>
<text text-anchor="middle" x="735" y="-363.9026" font-family="Times,serif" font-size="14.00" fill="#000000">(Innmind\Tower\Run)</text>
</g>
<!-- command_trigger&#45;&gt;run -->
<g id="edge4" class="edge">
<title>command_trigger&#45;&gt;run</title>
<path fill="none" stroke="#000000" d="M597.3614,-871.6656C559.4536,-841.2231 504,-785.8979 504,-722.7494 504,-722.7494 504,-722.7494 504,-548.926 504,-469.9944 591.1765,-422.4423 658.4212,-397.5035"/>
<polygon fill="#000000" stroke="#000000" points="659.9627,-400.6685 668.1852,-393.9871 657.5908,-394.0826 659.9627,-400.6685"/>
</g>
<!-- configuration -->
<g id="node8" class="node">
<title>configuration</title>
<ellipse fill="none" stroke="#000000" cx="441" cy="-288.1909" rx="159.7837" ry="25.4118"/>
<text text-anchor="middle" x="441" y="-290.9909" font-family="Times,serif" font-size="14.00" fill="#000000">configuration</text>
<text text-anchor="middle" x="441" y="-276.9909" font-family="Times,serif" font-size="14.00" fill="#000000">(Innmind\Tower\Configuration::load)</text>
</g>
<!-- command_ping&#45;&gt;configuration -->
<g id="edge14" class="edge">
<title>command_ping&#45;&gt;configuration</title>
<path fill="none" stroke="#000000" d="M446.643,-349.4963C445.909,-341.5224 445.0857,-332.5779 444.2996,-324.0381"/>
<polygon fill="#000000" stroke="#000000" points="447.7697,-323.5516 443.3678,-313.9145 440.7992,-324.1933 447.7697,-323.5516"/>
</g>
<!-- ping -->
<g id="node9" class="node">
<title>ping</title>
<ellipse fill="none" stroke="#000000" cx="757" cy="-288.1909" rx="138.3602" ry="25.4118"/>
<text text-anchor="middle" x="757" y="-290.9909" font-family="Times,serif" font-size="14.00" fill="#000000">ping</text>
<text text-anchor="middle" x="757" y="-276.9909" font-family="Times,serif" font-size="14.00" fill="#000000">(Innmind\Tower\Ping\Delegate)</text>
</g>
<!-- command_ping&#45;&gt;ping -->
<g id="edge15" class="edge">
<title>command_ping&#45;&gt;ping</title>
<path fill="none" stroke="#000000" d="M525.5306,-353.5071C569.8476,-341.0017 625.7383,-325.2304 671.4964,-312.3184"/>
<polygon fill="#000000" stroke="#000000" points="672.7231,-315.609 681.3967,-309.5247 670.822,-308.8721 672.7231,-315.609"/>
</g>
<!-- server -->
<g id="node7" class="node">
<title>server</title>
<ellipse fill="none" stroke="#000000" cx="1063" cy="-25.4558" rx="197.9345" ry="25.4118"/>
<text text-anchor="middle" x="1063" y="-28.2558" font-family="Times,serif" font-size="14.00" fill="#000000">server</text>
<text text-anchor="middle" x="1063" y="-14.2558" font-family="Times,serif" font-size="14.00" fill="#000000">(Innmind\Server\Control\ServerFactory::build)</text>
</g>
<!-- command_listen&#45;&gt;server -->
<g id="edge16" class="edge">
<title>command_listen&#45;&gt;server</title>
<path fill="none" stroke="#000000" d="M1055.1966,-873.9801C1119.2532,-848.4437 1204,-800.0517 1204,-722.7494 1204,-722.7494 1204,-722.7494 1204,-199.2792 1204,-138.7511 1151.7966,-87.5264 1110.9183,-56.6931"/>
<polygon fill="#000000" stroke="#000000" points="1112.7814,-53.7187 1102.6516,-50.6144 1108.6346,-59.3582 1112.7814,-53.7187"/>
</g>
<!-- loop -->
<g id="node14" class="node">
<title>loop</title>
<ellipse fill="none" stroke="#000000" cx="985" cy="-809.661" rx="104.5871" ry="25.4118"/>
<text text-anchor="middle" x="985" y="-812.461" font-family="Times,serif" font-size="14.00" fill="#000000">loop</text>
<text text-anchor="middle" x="985" y="-798.461" font-family="Times,serif" font-size="14.00" fill="#000000">(Innmind\Socket\Loop)</text>
</g>
<!-- command_listen&#45;&gt;loop -->
<g id="edge17" class="edge">
<title>command_listen&#45;&gt;loop</title>
<path fill="none" stroke="#000000" d="M985,-870.9664C985,-862.9925 985,-854.048 985,-845.5082"/>
<polygon fill="#000000" stroke="#000000" points="988.5001,-845.3846 985,-835.3846 981.5001,-845.3847 988.5001,-845.3846"/>
</g>
<!-- run&#45;&gt;server -->
<g id="edge5" class="edge">
<title>run&#45;&gt;server</title>
<path fill="none" stroke="#000000" d="M808.3168,-358.0243C839.7182,-348.3799 875.6141,-334.0647 904,-313.6468 985.0913,-255.3179 1003.2707,-229.0329 1044,-137.8234 1054.7946,-113.6498 1059.4957,-84.0475 1061.5241,-61.2958"/>
<polygon fill="#000000" stroke="#000000" points="1065.0347,-61.2863 1062.3003,-51.0504 1058.0547,-60.7574 1065.0347,-61.2863"/>
</g>
<!-- run&#45;&gt;configuration -->
<g id="edge6" class="edge">
<title>run&#45;&gt;configuration</title>
<path fill="none" stroke="#000000" d="M670.1165,-355.9219C627.8858,-343.4377 572.342,-327.018 526.5199,-313.4721"/>
<polygon fill="#000000" stroke="#000000" points="527.4798,-310.1062 516.8978,-310.6277 525.4953,-316.8191 527.4798,-310.1062"/>
</g>
<!-- run&#45;&gt;ping -->
<g id="edge7" class="edge">
<title>run&#45;&gt;ping</title>
<path fill="none" stroke="#000000" d="M741.4817,-349.4963C743.5224,-341.4347 745.8141,-332.3812 747.9972,-323.7567"/>
<polygon fill="#000000" stroke="#000000" points="751.4276,-324.4677 750.4886,-313.9145 744.6416,-322.7499 751.4276,-324.4677"/>
</g>
<!-- configuration&#45;&gt;configPath -->
<g id="edge8" class="edge">
<title>configuration&#45;&gt;configPath</title>
<path fill="none" stroke="#000000" d="M329.9985,-269.7328C310.1762,-265.4792 289.8454,-260.4826 271,-254.7351 246.3475,-247.2164 220.0105,-236.6909 197.3978,-226.8276"/>
<polygon fill="#000000" stroke="#000000" points="198.5118,-223.4934 187.9505,-222.6517 195.6818,-229.8958 198.5118,-223.4934"/>
</g>
<!-- loader -->
<g id="node10" class="node">
<title>loader</title>
<ellipse fill="none" stroke="#000000" cx="441" cy="-199.2792" rx="160.7102" ry="25.4118"/>
<text text-anchor="middle" x="441" y="-202.0792" font-family="Times,serif" font-size="14.00" fill="#000000">loader</text>
<text text-anchor="middle" x="441" y="-188.0792" font-family="Times,serif" font-size="14.00" fill="#000000">(Innmind\Tower\Configuration\Yaml)</text>
</g>
<!-- configuration&#45;&gt;loader -->
<g id="edge9" class="edge">
<title>configuration&#45;&gt;loader</title>
<path fill="none" stroke="#000000" d="M441,-262.474C441,-253.9034 441,-244.1955 441,-235.0056"/>
<polygon fill="#000000" stroke="#000000" points="444.5001,-234.9383 441,-224.9384 437.5001,-234.9384 444.5001,-234.9383"/>
</g>
<!-- ping_map -->
<g id="node11" class="node">
<title>ping_map</title>
<ellipse fill="none" stroke="#000000" cx="776" cy="-199.2792" rx="155.9266" ry="25.4118"/>
<text text-anchor="middle" x="776" y="-202.0792" font-family="Times,serif" font-size="14.00" fill="#000000">ping.map</text>
<text text-anchor="middle" x="776" y="-188.0792" font-family="Times,serif" font-size="14.00" fill="#000000">(map&lt;string, Innmind\Tower\Ping&gt;)</text>
</g>
<!-- ping&#45;&gt;ping_map -->
<g id="edge10" class="edge">
<title>ping&#45;&gt;ping_map</title>
<path fill="none" stroke="#000000" d="M762.4956,-262.474C764.3271,-253.9034 766.4016,-244.1955 768.3654,-235.0056"/>
<polygon fill="#000000" stroke="#000000" points="771.8496,-235.449 770.5168,-224.9384 765.0042,-233.9861 771.8496,-235.449"/>
</g>
<!-- ping_tcp -->
<g id="node12" class="node">
<title>ping_tcp</title>
<ellipse fill="none" stroke="#000000" cx="917" cy="-112.3675" rx="117.9089" ry="25.4118"/>
<text text-anchor="middle" x="917" y="-115.1675" font-family="Times,serif" font-size="14.00" fill="#000000">ping.tcp</text>
<text text-anchor="middle" x="917" y="-101.1675" font-family="Times,serif" font-size="14.00" fill="#000000">(Innmind\Tower\Ping\Tcp)</text>
</g>
<!-- ping_map&#45;&gt;ping_tcp -->
<g id="edge11" class="edge">
<title>ping_map&#45;&gt;ping_tcp</title>
<path fill="none" stroke="#000000" d="M816.0278,-174.6063C832.5288,-164.4351 851.7878,-152.564 869.0356,-141.9325"/>
<polygon fill="#000000" stroke="#000000" points="871.1703,-144.7282 877.8465,-136.5015 867.4973,-138.7693 871.1703,-144.7282"/>
</g>
<!-- ping_ssh -->
<g id="node13" class="node">
<title>ping_ssh</title>
<ellipse fill="none" stroke="#000000" cx="664" cy="-112.3675" rx="117.1258" ry="25.4118"/>
<text text-anchor="middle" x="664" y="-115.1675" font-family="Times,serif" font-size="14.00" fill="#000000">ping.ssh</text>
<text text-anchor="middle" x="664" y="-101.1675" font-family="Times,serif" font-size="14.00" fill="#000000">(Innmind\Tower\Ping\Ssh)</text>
</g>
<!-- ping_map&#45;&gt;ping_ssh -->
<g id="edge12" class="edge">
<title>ping_map&#45;&gt;ping_ssh</title>
<path fill="none" stroke="#000000" d="M743.605,-174.1408C731.1927,-164.5089 716.8867,-153.4074 703.8558,-143.2956"/>
<polygon fill="#000000" stroke="#000000" points="705.9815,-140.5149 695.9355,-137.1494 701.6901,-146.0452 705.9815,-140.5149"/>
</g>
<!-- ping_ssh&#45;&gt;server -->
<g id="edge13" class="edge">
<title>ping_ssh&#45;&gt;server</title>
<path fill="none" stroke="#000000" d="M747.1578,-94.2538C806.6809,-81.2882 887.4434,-63.6962 952.3996,-49.5472"/>
<polygon fill="#000000" stroke="#000000" points="953.2472,-52.9448 962.2732,-47.3965 951.7573,-46.1051 953.2472,-52.9448"/>
</g>
<!-- eventBus -->
<g id="node15" class="node">
<title>eventBus</title>
<ellipse fill="none" stroke="#000000" cx="666" cy="-722.7494" rx="133.8913" ry="25.4118"/>
<text text-anchor="middle" x="666" y="-725.5494" font-family="Times,serif" font-size="14.00" fill="#000000">eventBus</text>
<text text-anchor="middle" x="666" y="-711.5494" font-family="Times,serif" font-size="14.00" fill="#000000">(Innmind\EventBus\EventBus)</text>
</g>
<!-- loop&#45;&gt;eventBus -->
<g id="edge18" class="edge">
<title>loop&#45;&gt;eventBus</title>
<path fill="none" stroke="#000000" d="M914.9941,-790.5879C867.181,-777.5612 803.5041,-760.2124 752.5145,-746.3203"/>
<polygon fill="#000000" stroke="#000000" points="753.3899,-742.9313 742.8215,-743.6794 751.5498,-749.6851 753.3899,-742.9313"/>
</g>
<!-- timeout -->
<g id="node16" class="node">
<title>timeout</title>
<ellipse fill="none" stroke="#000000" cx="997" cy="-722.7494" rx="179.4758" ry="25.4118"/>
<text text-anchor="middle" x="997" y="-725.5494" font-family="Times,serif" font-size="14.00" fill="#000000">timeout</text>
<text text-anchor="middle" x="997" y="-711.5494" font-family="Times,serif" font-size="14.00" fill="#000000">(Innmind\TimeContinuum\ElapsedPeriod)</text>
</g>
<!-- loop&#45;&gt;timeout -->
<g id="edge19" class="edge">
<title>loop&#45;&gt;timeout</title>
<path fill="none" stroke="#000000" d="M988.5355,-784.0547C989.6365,-776.0808 990.8714,-767.1363 992.0505,-758.5965"/>
<polygon fill="#000000" stroke="#000000" points="995.5476,-758.8577 993.4483,-748.473 988.6134,-757.9002 995.5476,-758.8577"/>
</g>
<!-- listeners -->
<g id="node17" class="node">
<title>listeners</title>
<ellipse fill="none" stroke="#000000" cx="735" cy="-635.8377" rx="203.226" ry="25.4118"/>
<text text-anchor="middle" x="735" y="-638.6377" font-family="Times,serif" font-size="14.00" fill="#000000">listeners</text>
<text text-anchor="middle" x="735" y="-624.6377" font-family="Times,serif" font-size="14.00" fill="#000000">(map&lt;string, Innmind\Immutable\SetInterface&gt;)</text>
</g>
<!-- eventBus&#45;&gt;listeners -->
<g id="edge20" class="edge">
<title>eventBus&#45;&gt;listeners</title>
<path fill="none" stroke="#000000" d="M686.3291,-697.1431C693.2777,-688.3906 701.1546,-678.469 708.516,-669.1966"/>
<polygon fill="#000000" stroke="#000000" points="711.3395,-671.2691 714.8162,-661.2609 705.8572,-666.9166 711.3395,-671.2691"/>
</g>
<!-- listeners_data -->
<g id="node18" class="node">
<title>listeners_data</title>
<ellipse fill="none" stroke="#000000" cx="735" cy="-548.926" rx="70.6924" ry="25.4118"/>
<text text-anchor="middle" x="735" y="-551.726" font-family="Times,serif" font-size="14.00" fill="#000000">listeners.data</text>
<text text-anchor="middle" x="735" y="-537.726" font-family="Times,serif" font-size="14.00" fill="#000000">(set&lt;callable&gt;)</text>
</g>
<!-- listeners&#45;&gt;listeners_data -->
<g id="edge21" class="edge">
<title>listeners&#45;&gt;listeners_data</title>
<path fill="none" stroke="#000000" d="M735,-610.2314C735,-602.2574 735,-593.313 735,-584.7732"/>
<polygon fill="#000000" stroke="#000000" points="738.5001,-584.6495 735,-574.6496 731.5001,-584.6496 738.5001,-584.6495"/>
</g>
<!-- listeners_data_run -->
<g id="node19" class="node">
<title>listeners_data_run</title>
<ellipse fill="none" stroke="#000000" cx="735" cy="-462.0143" rx="135.3785" ry="25.4118"/>
<text text-anchor="middle" x="735" y="-464.8143" font-family="Times,serif" font-size="14.00" fill="#000000">listeners.data.run</text>
<text text-anchor="middle" x="735" y="-450.8143" font-family="Times,serif" font-size="14.00" fill="#000000">(Innmind\Tower\Listener\Ping)</text>
</g>
<!-- listeners_data&#45;&gt;listeners_data_run -->
<g id="edge22" class="edge">
<title>listeners_data&#45;&gt;listeners_data_run</title>
<path fill="none" stroke="#000000" d="M735,-523.3197C735,-515.3457 735,-506.4013 735,-497.8615"/>
<polygon fill="#000000" stroke="#000000" points="738.5001,-497.7379 735,-487.7379 731.5001,-497.7379 738.5001,-497.7379"/>
</g>
<!-- listeners_data_run&#45;&gt;run -->
<g id="edge23" class="edge">
<title>listeners_data_run&#45;&gt;run</title>
<path fill="none" stroke="#000000" d="M735,-436.408C735,-428.434 735,-419.4896 735,-410.9498"/>
<polygon fill="#000000" stroke="#000000" points="738.5001,-410.8262 735,-400.8262 731.5001,-410.8262 738.5001,-410.8262"/>
</g>
</g>
</svg>
